<?xml version="1.0" encoding="UTF-8"?>
<svg width="1200pt" height="1200pt" version="1.1" viewBox="0 0 1200 1200" xmlns="http://www.w3.org/2000/svg">
 <path d="m517.12 268.45c-59.914 27.473-117.6 86.094-178.78 170.39-4.6289 5.7539-4.1328 14.988 1.082 20.215s14.43 5.7188 20.172 1.082c81.105-59.105 141.71-73.219 195.07-83.539 50.602-9.7852 96.727-16.441 139.57-55.375 7.6406 2.4922 13.836 4.4102 19.602 9.4648-37.438 25.668-74.047 59.832-102.26 101.76-27.297-9.5781-56.625-14.91-87.145-14.91-145.91 0-264.51 118.84-264.51 265.05s118.6 265.05 264.51 265.05c124.72 0 229.61-86.773 257.42-203.28 25.027 26.691 54.023 50.98 86.203 72.18 6.9023 4.5625 17.434 2.0078 21.492-5.207 51.238-89.582 64.359-172.75 35.426-244.22-28.293-69.898-95.195-126.02-196.96-168.26-2.4492-18.742-1.9336-33.082-1.1797-39.758 25.578-18.152 51.547-32.176 74.863-40.941l-10.391-28.398c-16.523 6.207-34.094 14.414-51.723 24.613-14.277-15.199-30.523-19.961-41.566-23.902-29.418-21.258-59.441-33.457-89.508-37.152-31.277-3.6367-66.246 3.8281-91.398 15.145zm87.855 13.961c19.289 2.4023 39.055 11.18 59.277 23.43-33.371 25.859-68.328 31.867-115.25 40.941-37.445 7.2422-81.93 18.211-133.43 44.016 40.004-45.688 78.293-78.383 114.3-94.895 26.059-11.25 49.621-15.805 75.102-13.488zm90.926 101.05c0.90625 10.156 2.0977 18.852 3.543 27.453-6.6641 20.871-11.207 41.441-13.699 61.766-13.965-10.793-29.145-20.293-45.109-28.16 16.125-22.863 35.039-43.336 55.262-61.055zm38.969 52.062c85.613 38.988 139.53 87.398 162.01 142.94 21.688 53.582 15.523 116.04-18.895 187.66-59.336-93.605-99.598-186.21-123.75-260.55-8.4219-25.914-14.727-49.309-19.367-70.047zm-210.43 12.305c61.336 0 117 23.672 158.7 62.238-0.1875 75.105 26.969 145.05 73.211 204.7-15.547 114.61-113.2 202.57-231.92 202.57-129.57 0-234.28-104.93-234.28-234.75 0-129.83 104.71-234.76 234.28-234.76zm191.53 35.969c2.8555 10.027 5.9453 20.465 9.4453 31.238 22.246 68.469 57.582 151.24 108.16 236.41-81.773-71.27-128.09-164.12-117.61-267.65zm-123.52 9.4648c-15.113 68.156 0 106.02 75.574 174.17-44.797-52.98-68.016-106.02-75.574-174.17zm-98.246 143.88c-8.3477 0-15.113 6.7812-15.113 15.145 0 8.3633 6.7656 15.145 15.113 15.145 8.3477 0 15.113-6.7812 15.113-15.145 0-8.3633-6.7656-15.145-15.113-15.145zm-136.03 68.156c-8.3477 0-15.113 6.7812-15.113 15.145 0 8.3633 6.7656 15.145 15.113 15.145 8.3477 0 15.113-6.7812 15.113-15.145 0-8.3633-6.7656-15.145-15.113-15.145zm98.246 15.145c-8.3477 0-15.113 6.7812-15.113 15.145 0 8.3633 6.7656 15.145 15.113 15.145 8.3477 0 15.113-6.7812 15.113-15.145 0-8.3633-6.7656-15.145-15.113-15.145zm-68.016 22.719c-8.3477 0-15.113 6.7812-15.113 15.145 0 8.3633 6.7656 15.145 15.113 15.145s15.113-6.7812 15.113-15.145c0-8.3633-6.7656-15.145-15.113-15.145zm98.246 45.438c-8.3477 0-15.113 6.7812-15.113 15.145 0 8.3633 6.7656 15.145 15.113 15.145s15.113-6.7812 15.113-15.145c0-8.3633-6.7656-15.145-15.113-15.145z"/>
</svg>
